<svg id="Capa_1" enable-background="new 0 0 512 512" height="512" viewBox="0 0 512 512" width="512" xmlns="http://www.w3.org/2000/svg"><g><g clip-rule="evenodd" fill-rule="evenodd"><path d="m107.508 13 18.492 40 41.508 16.008-43.508 18.992-16.571 37.925-18.429-40.925-41.492-15.537 44.492-15.463z" fill="#faef93"/><path d="m324 236 17 40 43.086 18.501-45.086 16.499-14.914 43.501-20.086-46.501-39.914-13.499 42.914-17.501z" fill="#faef93"/><path d="m200.132 130.343 8.639 22.095 18.229 10.495-19.333 8.838-7.535 18.229-11.799-19.886-19.333-8.838 20.99-8.286z" fill="#c09fde"/></g><g><g><g clip-rule="evenodd" fill-rule="evenodd"><path d="m324.086 234.501c0 33 27 60 60 60-33 0-60 27-60 60 0-33-27-60-60-60 33 0 60-27 60-60zm-156.578-165.493c-33 0-60 27-60 60 0-15.97-6.324-30.536-16.591-41.315-28.132 35.726-44.917 80.806-44.917 129.807 0 90.354 57.066 167.372 137.119 197h145.763c80.052-29.627 137.118-106.646 137.118-197 0-115.98-94.02-210-210-210-49.001 0-94.081 16.785-129.808 44.917 10.78 10.267 25.345 16.591 41.316 16.591zm32.624 47.624c0 24.75 20.25 45 45 45-24.75 0-45 20.25-45 45 0-24.75-20.25-45-45-45 24.75 0 45-20.25 45-45z" fill="#6e91ef"/><path d="m136 414.5h240v30h-240z" fill="#faef93"/><path d="m376 444.5h-240c-16.501 0-30 13.5-30 30v30h300v-30c0-16.501-13.5-30-30-30z" fill="#c09fde"/><path d="m101.92 103.797c-2.782-5.959-6.516-11.393-11.004-16.104-28.131 35.726-44.916 80.806-44.916 129.807 0 90.354 57.066 167.372 137.119 197h22.5c-80.053-29.627-137.119-106.646-137.119-197 0-41.9 12.274-80.933 33.42-113.703zm166.473-95.923c-4.101-.239-8.231-.374-12.393-.374-49.001 0-94.081 16.785-129.808 44.917 3.068 2.922 6.442 5.524 10.069 7.752 28.467-23.127 66.319-48.707 132.132-52.295z" fill="#3d6dea"/><path d="m136 414.5h22.5v30h-22.5z" fill="#efc17a"/><path d="m158.5 444.5h-22.5c-16.501 0-30 13.5-30 30v30h22.5v-30c0-16.501 13.499-30 30-30z" fill="#a070ce"/></g><g><path d="m368.5 82.5h-15v-15h15zm-30.001-15h-15v-15h15z" fill="#fff"/></g></g><g><path d="m331 497h15v15h-15z"/><path d="m433.58 343.109c26.116-36.854 39.92-80.288 39.92-125.609 0-58.096-22.624-112.715-63.705-153.795-41.08-41.081-95.699-63.705-153.795-63.705-47.007 0-91.453 14.636-128.993 42.378-7.493-9.078-11.999-20.708-11.999-33.37h-15c0 28.949-23.551 52.5-52.5 52.5v15c12.662 0 24.292 4.506 33.37 11.999-27.743 37.538-42.378 81.985-42.378 128.993 0 45.321 13.804 88.755 39.92 125.609 18.792 26.519 42.878 48.2 70.725 63.891h-20.645v30.754c-17.096 3.484-30 18.635-30 36.745v37.501h217.5v-15h-202.5v-22.5c0-12.407 10.093-22.5 22.5-22.5h240c12.407 0 22.5 10.093 22.5 22.5v22.5h-37.5v15h52.5v-37.5c0-18.11-12.904-33.261-30-36.745v-30.755h-20.645c27.847-15.691 51.932-37.372 70.725-63.891zm-326.072-303.195c6.439 12.45 16.644 22.654 29.094 29.094-12.45 6.439-22.654 16.644-29.094 29.094-6.439-12.45-16.644-22.654-29.094-29.094 12.45-6.44 22.654-16.644 29.094-29.094zm260.992 397.086h-225v-15h225zm-40.997-30h-143.006c-37.879-14.295-70.308-39.36-93.838-72.564-24.309-34.304-37.159-74.74-37.159-116.936 0-42.743 12.991-83.21 37.654-117.631 5.588 8.343 8.854 18.365 8.854 29.138h15c0-28.949 23.551-52.5 52.5-52.5v-15c-10.773 0-20.796-3.266-29.138-8.854 34.421-24.662 74.888-37.653 117.63-37.653 111.659 0 202.5 90.841 202.5 202.5 0 42.196-12.85 82.632-37.159 116.936-23.53 33.204-55.959 58.269-93.838 72.564z"/><path d="m207.632 116.632h-15c0 20.678-16.822 37.5-37.5 37.5v15c20.678 0 37.5 16.822 37.5 37.5h15c0-20.678 16.822-37.5 37.5-37.5v-15c-20.678 0-37.5-16.822-37.5-37.5zm-7.5 62.981c-4.434-7.357-10.624-13.547-17.981-17.981 7.357-4.434 13.547-10.624 17.981-17.981 4.435 7.357 10.624 13.547 17.981 17.981-7.357 4.434-13.547 10.624-17.981 17.981z"/><path d="m331.586 234.501h-15c0 28.949-23.551 52.5-52.5 52.5v15c28.949 0 52.5 23.551 52.5 52.5h15c0-28.949 23.551-52.5 52.5-52.5v-15c-28.948 0-52.5-23.551-52.5-52.5zm-7.5 89.094c-6.439-12.45-16.644-22.654-29.094-29.094 12.45-6.439 22.654-16.644 29.094-29.094 6.439 12.45 16.644 22.654 29.094 29.094-12.45 6.439-22.654 16.644-29.094 29.094z"/><path d="m136.588 317h15v15h-15z"/><path d="m266.809 197.523h15v15h-15z"/><path d="m319.309 167.524h15v15h-15z"/><path d="m289.309 122.524h15v15h-15z"/><path d="m166.587 272.001h15v15h-15z"/><path d="m189.087 347h15v15h-15z"/></g></g></g></svg>